<?xml version="1.0" encoding="UTF-8" standalone="no"?>
<!DOCTYPE svg PUBLIC "-//W3C//DTD SVG 1.1//EN" "http://www.w3.org/Graphics/SVG/1.1/DTD/svg11.dtd">
<svg width="100%" height="100%" viewBox="0 0 2363 2363" version="1.1" xmlns="http://www.w3.org/2000/svg" xmlns:xlink="http://www.w3.org/1999/xlink" xml:space="preserve" xmlns:serif="http://www.serif.com/" style="fill-rule:evenodd;clip-rule:evenodd;stroke-linejoin:round;stroke-miterlimit:2;">
    <g transform="matrix(4.14819,0,0,4.14819,88.5525,163.135)">
        <g>
            <path d="M355.909,112.23C374.909,102.404 387.904,82.586 387.904,59.721C387.904,27.084 361.447,0.627 328.809,0.627C296.172,0.627 269.715,27.084 269.715,59.721C269.715,76.865 277.023,92.297 288.685,103.091C250.342,106.846 209.983,124.651 186.395,160.928C169.106,187.516 164.596,211.609 167.602,233.494C170.304,253.168 178.365,271.628 192.96,286.362C216.847,310.475 252.55,314.167 278.432,302.55C301.47,292.21 316.017,270.291 306.847,245.305C304.017,302.777 212.466,312.879 199.3,248.324C189.187,198.739 240.468,129.041 322.244,156.286C408.887,185.153 408.357,286.437 402.847,307.645C448.206,281.305 472.357,317.607 472.357,317.607C483.276,202.296 424.468,139.444 355.909,112.23Z" style="fill:rgb(255,226,16);fill-rule:nonzero;"/>
            <path d="M455.149,57.796C434.58,57.796 417.904,74.471 417.904,95.042C417.904,115.611 434.58,132.286 455.149,132.286C475.719,132.286 492.394,115.611 492.394,95.042C492.394,74.471 475.719,57.796 455.149,57.796Z" style="fill:rgb(255,226,16);fill-rule:nonzero;"/>
            <path id="st" d="M517.866,151.871C506.987,151.871 498.167,160.69 498.167,171.57C498.167,182.449 506.987,191.267 517.866,191.267C528.745,191.267 537.564,182.449 537.564,171.57C537.564,160.69 528.745,151.871 517.866,151.871Z" style="fill:rgb(255,226,16);fill-rule:nonzero;"/>
            <path d="M127.455,294.772C149.878,326.101 185.477,352.152 228.688,354.441C260.359,356.118 283.479,347.978 300.929,334.433C316.616,322.255 328.572,306.045 334.035,286.037C342.974,253.294 328.32,220.528 305.319,203.923C284.844,189.141 258.588,187.503 241.535,207.937C292.722,181.652 347.246,255.886 297.923,299.566C260.038,333.116 174.038,323.555 156.744,239.113C138.422,149.644 226.402,99.462 247.523,93.629C202.033,67.517 221.396,28.451 221.396,28.451C116.074,76.65 91.045,159.005 101.757,231.986C83.748,220.445 60.087,219.099 40.285,230.532C12.021,246.851 2.336,282.992 18.655,311.256C34.974,339.521 71.115,349.205 99.379,332.887C114.227,324.315 123.937,310.27 127.455,294.772Z" style="fill:rgb(255,226,16);fill-rule:nonzero;"/>
            <path d="M55.874,186.891C73.688,176.606 79.792,153.827 69.506,136.013C59.221,118.199 36.442,112.095 18.628,122.38C0.814,132.665 -5.289,155.444 4.996,173.259C15.281,191.073 38.06,197.176 55.874,186.891Z" style="fill:rgb(255,226,16);fill-rule:nonzero;"/>
            <path id="sl" d="M82.017,79.116C91.439,73.677 94.667,61.63 89.227,52.209C83.788,42.787 71.74,39.559 62.319,44.998C52.897,50.438 49.669,62.485 55.109,71.906C60.548,81.328 72.596,84.556 82.017,79.116Z" style="fill:rgb(255,226,16);fill-rule:nonzero;"/>
            <path d="M421.117,343.819C406.269,335.246 389.25,333.859 374.071,338.562C389.991,303.478 394.751,259.623 375.128,221.056C360.747,192.79 342.136,176.838 321.681,168.499C303.292,161.002 283.275,158.753 263.216,164.026C230.391,172.656 209.341,201.73 206.461,229.952C203.897,255.074 215.605,278.631 241.829,283.183C193.472,251.996 230.499,167.66 292.989,188.535C340.987,204.569 375.707,283.828 311.224,341.026C242.902,401.628 155.453,350.527 139.841,335.152C139.973,387.603 96.459,390.367 96.459,390.367C190.861,457.48 274.698,437.977 332.545,392.209C331.555,413.576 342.22,434.74 362.022,446.172C390.287,462.491 426.428,452.807 442.747,424.542C459.065,396.279 449.38,360.137 421.117,343.819Z" style="fill:rgb(255,226,16);fill-rule:nonzero;"/>
            <path d="M316.433,454.492C298.62,444.208 275.84,450.312 265.555,468.125C255.271,485.94 261.374,508.719 279.188,519.003C297.002,529.287 319.781,523.185 330.066,505.371C340.351,487.557 334.248,464.778 316.433,454.492Z" style="fill:rgb(255,226,16);fill-rule:nonzero;"/>
            <path id="sb" d="M210.026,485.74C200.604,480.3 188.557,483.529 183.118,492.949C177.678,502.371 180.906,514.418 190.328,519.858C199.75,525.296 211.796,522.07 217.236,512.648C222.675,503.226 219.447,491.179 210.026,485.74Z" style="fill:rgb(255,226,16);fill-rule:nonzero;"/>
        </g>
    </g>
</svg>
